<svg xmlns="http://www.w3.org/2000/svg" version="1.1" xmlns:xlink="http://www.w3.org/1999/xlink" width="200" height="200"><svg xmlns="http://www.w3.org/2000/svg" version="1.1" xmlns:xlink="http://www.w3.org/1999/xlink" viewBox="0 0 200 200"><rect width="200" height="200" fill="url('#gradient')"></rect><defs><linearGradient id="SvgjsLinearGradient1001" gradientTransform="rotate(0 0.5 0.5)"><stop offset="0%" stop-color="#dee90b"></stop><stop offset="100%" stop-color="#d9e241"></stop></linearGradient></defs><g><g fill="#1b3855" transform="matrix(3.0345735923608825,0,0,3.0345735923608825,8.932681130193188,122.4581875573423)" stroke="#0e5278" stroke-width="0.2"><path d="M6.74-4.46L6.74-14.22L10.16-14.22L10.16-4.46Q10.16-3.11 9.53-2.04Q8.90-0.98 7.77-0.39Q6.64 0.20 5.25 0.20L5.25 0.20Q2.93 0.20 1.64-0.98Q0.35-2.15 0.35-4.30L0.35-4.30L3.79-4.30Q3.79-3.32 4.13-2.88Q4.46-2.44 5.25-2.44L5.25-2.44Q5.97-2.44 6.35-2.97Q6.74-3.51 6.74-4.46L6.74-4.46ZM11.76-4.82L11.75-5.38Q11.75-6.96 12.36-8.20Q12.98-9.43 14.13-10.10Q15.28-10.76 16.84-10.76L16.84-10.76Q19.21-10.76 20.58-9.29Q21.94-7.82 21.94-5.29L21.94-5.29L21.94-5.18Q21.94-2.71 20.57-1.25Q19.20 0.20 16.86 0.20L16.86 0.20Q14.60 0.20 13.23-1.16Q11.87-2.51 11.76-4.82L11.76-4.82ZM15.05-5.77L15.04-5.18Q15.04-3.71 15.50-3.03Q15.96-2.34 16.86-2.34L16.86-2.34Q18.61-2.34 18.65-5.05L18.65-5.05L18.65-5.38Q18.65-8.22 16.84-8.22L16.84-8.22Q15.19-8.22 15.05-5.77L15.05-5.77ZM28.93-2.97L28.93-2.97Q28.93-3.39 28.49-3.64Q28.05-3.90 26.82-4.17Q25.59-4.44 24.79-4.89Q23.98-5.33 23.56-5.97Q23.14-6.60 23.14-7.42L23.14-7.42Q23.14-8.88 24.35-9.82Q25.55-10.76 27.49-10.76L27.49-10.76Q29.58-10.76 30.85-9.81Q32.12-8.87 32.12-7.32L32.12-7.32L28.82-7.32Q28.82-8.59 27.48-8.59L27.48-8.59Q26.96-8.59 26.61-8.31Q26.26-8.02 26.26-7.59L26.26-7.59Q26.26-7.15 26.69-6.88Q27.12-6.60 28.06-6.43Q29.00-6.25 29.72-6.01L29.72-6.01Q32.10-5.19 32.10-3.07L32.10-3.07Q32.10-1.62 30.82-0.71Q29.53 0.20 27.49 0.20L27.49 0.20Q26.13 0.20 25.07-0.29Q24.00-0.78 23.41-1.62Q22.81-2.46 22.81-3.39L22.81-3.39L25.89-3.39Q25.91-2.66 26.38-2.32Q26.85-1.98 27.58-1.98L27.58-1.98Q28.25-1.98 28.59-2.26Q28.93-2.53 28.93-2.97ZM36.86-15L36.86-9.43Q37.91-10.76 39.55-10.76L39.55-10.76Q41.30-10.76 42.19-9.73Q43.08-8.69 43.10-6.67L43.10-6.67L43.10 0L39.79 0L39.79-6.59Q39.79-7.43 39.45-7.83Q39.11-8.22 38.29-8.22L38.29-8.22Q37.28-8.22 36.86-7.58L36.86-7.58L36.86 0L33.56 0L33.56-15L36.86-15ZM48.40-10.57L48.40 0L45.10 0L45.10-10.57L48.40-10.57ZM44.90-13.29L44.90-13.29Q44.90-13.99 45.41-14.44Q45.92-14.89 46.73-14.89Q47.54-14.89 48.05-14.44Q48.55-13.99 48.55-13.29Q48.55-12.59 48.05-12.14Q47.54-11.69 46.73-11.69Q45.92-11.69 45.41-12.14Q44.90-12.59 44.90-13.29ZM59.67 0L56.38 0Q56.20-0.32 56.06-0.95L56.06-0.95Q55.16 0.20 53.53 0.20L53.53 0.20Q52.03 0.20 50.99-0.71Q49.94-1.61 49.94-2.98L49.94-2.98Q49.94-4.70 51.21-5.58Q52.48-6.46 54.90-6.46L54.90-6.46L55.92-6.46L55.92-7.01Q55.92-8.47 54.66-8.47L54.66-8.47Q53.49-8.47 53.49-7.31L53.49-7.31L50.20-7.31Q50.20-8.85 51.50-9.80Q52.80-10.76 54.82-10.76Q56.85-10.76 58.02-9.78Q59.19-8.79 59.22-7.07L59.22-7.07L59.22-2.39Q59.24-0.94 59.67-0.17L59.67-0.17L59.67 0ZM54.32-2.15L54.32-2.15Q54.93-2.15 55.34-2.41Q55.74-2.68 55.92-3.01L55.92-3.01L55.92-4.70L54.96-4.70Q53.24-4.70 53.24-3.15L53.24-3.15Q53.24-2.71 53.54-2.43Q53.85-2.15 54.32-2.15Z"></path></g></g></svg><style>@media (prefers-color-scheme: light) { :root { filter: none; } }
@media (prefers-color-scheme: dark) { :root { filter: none; } }
</style></svg>